# xmcd CD database file
#
# Track frame offsets:
#	150
#	24299
#	59635
#	94072
#	107752
#	141825
#	162612
#	197119
#	231660
#
# Disc length: 3304 seconds
#
# Revision: 0
# Processed by: cddbd v1.5.1PL2 Copyright (c) Steve Scherf et al.
# Submitted via: CDex 1.51
#
DISCID=820ce609
DTITLE=Wild Mimi Antigroove syndicate - Grrove-je?
DYEAR=206
DGENRE=Jazz
TTITLE0=A pas de poneys
TTITLE1=SUrf it
TTITLE2=Never talk to this chicken Par 1
TTITLE3=La valse des poneys absents
TTITLE4=PJ: Poney judiciaire
TTITLE5=Chippendail
TTITLE6=Too much couenne in the jambon
TTITLE7=La fuite du calamr
TTITLE8=Sauver George
EXTD=YEAR: 206
EXTT0=
EXTT1=
EXTT2=
EXTT3=
EXTT4=
EXTT5=
EXTT6=
EXTT7=
EXTT8=
PLAYORDER=
